# Blender 5.0.1
# www.blender.org
mtllib Concrete_post_Barrier.mtl
o Cylinder
v 0.000000 -0.189000 -0.791089
v 0.000000 5.730582 -0.449690
v 0.559385 -0.189000 -0.559385
v 0.317979 5.730582 -0.317979
v 0.791089 -0.189000 0.000000
v 0.449690 5.730582 0.000000
v 0.559385 -0.189000 0.559385
v 0.317979 5.730582 0.317979
v 0.000000 -0.189000 0.791089
v 0.000000 5.730582 0.449690
v -0.559385 -0.189000 0.559385
v -0.317979 5.730582 0.317979
v -0.791089 -0.189000 0.000000
v -0.449690 5.730582 0.000000
v -0.559385 -0.189000 -0.559385
v -0.317979 5.730582 -0.317979
v 0.000000 5.294863 -0.791089
v 0.559385 5.294863 -0.559385
v 0.791089 5.294863 0.000000
v 0.559385 5.294863 0.559385
v 0.000000 5.294863 0.791089
v -0.559385 5.294863 0.559385
v -0.791089 5.294863 0.000000
v -0.559385 5.294863 -0.559385
v 0.482092 5.583487 -0.482092
v 0.000000 5.583487 -0.681782
v 0.681782 5.583487 0.000000
v 0.482092 5.583487 0.482092
v 0.000000 5.583487 0.681782
v -0.482092 5.583487 0.482092
v -0.681782 5.583487 0.000000
v -0.482092 5.583487 -0.482092
vn 0.3612 0.3303 -0.8720
vn 0.8720 0.3303 -0.3612
vn 0.8720 0.3303 0.3612
vn 0.3612 0.3303 0.8720
vn -0.3612 0.3303 0.8720
vn -0.8720 0.3303 0.3612
vn -0.0000 1.0000 -0.0000
vn -0.8720 0.3303 -0.3612
vn -0.3612 0.3303 -0.8720
vn -0.0000 -1.0000 -0.0000
vn -0.3827 -0.0000 -0.9239
vn -0.9239 -0.0000 -0.3827
vn -0.9239 -0.0000 0.3827
vn -0.3827 -0.0000 0.9239
vn 0.3827 -0.0000 0.9239
vn 0.9239 -0.0000 0.3827
vn 0.9239 -0.0000 -0.3827
vn 0.3827 -0.0000 -0.9239
vn 0.2165 0.8246 -0.5226
vn 0.5226 0.8246 -0.2165
vn 0.5226 0.8246 0.2165
vn 0.2165 0.8246 0.5226
vn -0.2165 0.8246 0.5226
vn -0.5226 0.8246 0.2165
vn -0.5226 0.8246 -0.2165
vn -0.2165 0.8246 -0.5226
vt 0.002211 0.291218
vt 0.030448 0.279522
vt 0.133618 0.382692
vt 0.121922 0.410929
vt 0.279522 0.382692
vt 0.291218 0.410929
vt 0.382692 0.279522
vt 0.410929 0.291218
vt 0.382692 0.133618
vt 0.410929 0.121922
vt 0.279522 0.030448
vt 0.291218 0.002211
vt 0.133618 0.030448
vt 0.121922 0.002211
vt 0.158452 0.322737
vt 0.090404 0.254688
vt 0.090404 0.158452
vt 0.158452 0.090404
vt 0.254688 0.090404
vt 0.322737 0.158452
vt 0.322737 0.254688
vt 0.254688 0.322737
vt 0.030448 0.133618
vt 0.002211 0.121922
vt 0.002211 0.704359
vt 0.002211 0.535062
vt 0.121922 0.415352
vt 0.291218 0.415352
vt 0.410929 0.535062
vt 0.410929 0.704359
vt 0.291218 0.824069
vt 0.121922 0.824069
vt 0.535062 0.422484
vt 0.535062 0.002211
vt 0.704359 0.002211
vt 0.704359 0.422484
vt 0.415352 0.422484
vt 0.415352 0.002211
vt 0.535062 0.847180
vt 0.535062 0.426907
vt 0.704359 0.426907
vt 0.704359 0.847180
vt 0.415352 0.847180
vt 0.415352 0.426907
vt 0.828492 0.422484
vt 0.828492 0.002211
vt 0.997788 0.002211
vt 0.997788 0.422484
vt 0.708782 0.422484
vt 0.708782 0.002211
vt 0.828492 0.847180
vt 0.828492 0.426907
vt 0.997788 0.426907
vt 0.997788 0.847180
vt 0.708782 0.847180
vt 0.708782 0.426907
s 0
usemtl Material.001
f 17/1/1 26/2/1 25/3/1 18/4/1
f 18/4/2 25/3/2 27/5/2 19/6/2
f 19/6/3 27/5/3 28/7/3 20/8/3
f 20/8/4 28/7/4 29/9/4 21/10/4
f 21/10/5 29/9/5 30/11/5 22/12/5
f 22/12/6 30/11/6 31/13/6 23/14/6
f 4/15/7 2/16/7 16/17/7 14/18/7 12/19/7 10/20/7 8/21/7 6/22/7
f 23/14/8 31/13/8 32/23/8 24/24/8
f 24/24/9 32/23/9 26/2/9 17/1/9
f 1/25/10 3/26/10 5/27/10 7/28/10 9/29/10 11/30/10 13/31/10 15/32/10
f 15/33/11 24/34/11 17/35/11 1/36/11
f 13/37/12 23/38/12 24/34/12 15/33/12
f 11/39/13 22/40/13 23/41/13 13/42/13
f 9/43/14 21/44/14 22/40/14 11/39/14
f 7/45/15 20/46/15 21/47/15 9/48/15
f 5/49/16 19/50/16 20/46/16 7/45/16
f 3/51/17 18/52/17 19/53/17 5/54/17
f 1/55/18 17/56/18 18/52/18 3/51/18
f 2/16/19 4/15/19 25/3/19 26/2/19
f 4/15/20 6/22/20 27/5/20 25/3/20
f 6/22/21 8/21/21 28/7/21 27/5/21
f 8/21/22 10/20/22 29/9/22 28/7/22
f 10/20/23 12/19/23 30/11/23 29/9/23
f 12/19/24 14/18/24 31/13/24 30/11/24
f 14/18/25 16/17/25 32/23/25 31/13/25
f 16/17/26 2/16/26 26/2/26 32/23/26
