# Blender 5.0.1
# www.blender.org
mtllib Warehouse_Barrier.mtl
o Cylinder.001
v -9.926412 -0.003778 1.000000
v -8.237245 7.214834 0.999999
v -10.633518 -0.003778 0.707107
v -8.209753 7.921406 0.707106
v -10.926412 -0.003778 0.000000
v -8.198365 8.214078 -0.000001
v -10.633518 -0.003778 -0.707107
v -8.209753 7.921406 -0.707107
v -9.926412 -0.003778 -1.000000
v -8.237246 7.214834 -1.000001
v -9.219305 -0.003778 -0.707107
v -8.264738 6.508262 -0.707107
v -8.926412 -0.003778 -0.000000
v -8.276125 6.215590 -0.000001
v -9.219305 -0.003778 0.707107
v -8.264737 6.508262 0.707106
v -9.926412 5.417969 1.000000
v -10.633518 5.417969 0.707107
v -10.926412 5.417969 0.000000
v -10.633518 5.417969 -0.707107
v -9.926412 5.417969 -1.000000
v -9.219305 5.417969 -0.707107
v -8.926412 5.417969 -0.000000
v -9.219305 5.417969 0.707107
v -9.395240 6.483134 1.000000
v -9.772953 7.080907 0.707107
v -9.929407 7.328512 0.000000
v -9.772954 7.080907 -0.707107
v -9.395240 6.483134 -1.000000
v -9.017527 5.885361 -0.707107
v -8.861072 5.637755 -0.000000
v -9.017526 5.885361 0.707106
v 10.095565 -0.003778 -1.000000
v 8.406398 7.214834 -1.000000
v 10.802672 -0.003778 -0.707107
v 8.378907 7.921406 -0.707107
v 11.095565 -0.003778 -0.000000
v 8.367518 8.214078 -0.000000
v 10.802670 -0.003778 0.707107
v 8.378905 7.921406 0.707107
v 10.095565 -0.003778 1.000000
v 8.406398 7.214834 1.000000
v 9.388457 -0.003778 0.707107
v 8.433890 6.508262 0.707107
v 9.095565 -0.003778 -0.000000
v 8.445277 6.215590 -0.000000
v 9.388459 -0.003778 -0.707107
v 8.433890 6.508262 -0.707107
v 10.095565 5.417969 -1.000000
v 10.802672 5.417969 -0.707107
v 11.095565 5.417969 -0.000000
v 10.802670 5.417969 0.707107
v 10.095565 5.417969 1.000000
v 9.388457 5.417969 0.707107
v 9.095565 5.417969 -0.000000
v 9.388459 5.417969 -0.707107
v 9.564393 6.483134 -1.000000
v 9.942107 7.080907 -0.707107
v 10.098561 7.328512 -0.000000
v 9.942107 7.080907 0.707107
v 9.564393 6.483134 1.000000
v 9.186679 5.885361 0.707107
v 9.030225 5.637755 -0.000000
v 9.186679 5.885361 -0.707107
vn -0.2049 0.3547 0.9123
vn -0.4330 0.8263 0.3601
vn -0.4330 0.8263 -0.3601
vn -0.2049 0.3547 -0.9123
vn 0.2428 -0.3424 -0.9076
vn 0.6299 -0.7018 -0.3327
vn -0.0000 0.9240 -0.3824
vn 0.6299 -0.7018 0.3327
vn 0.2428 -0.3424 0.9076
vn -0.0000 -1.0000 -0.0000
vn 0.3827 -0.0000 0.9239
vn 0.9239 -0.0000 0.3827
vn 0.9239 -0.0000 -0.3827
vn 0.3827 -0.0000 -0.9239
vn -0.3827 -0.0000 -0.9239
vn -0.9239 -0.0000 -0.3827
vn -0.9239 -0.0000 0.3827
vn -0.3827 -0.0000 0.9239
vn 0.3862 -0.1847 0.9037
vn 0.8771 -0.3409 0.3384
vn 0.8771 -0.3409 -0.3384
vn 0.3862 -0.1847 -0.9037
vn -0.3810 0.1944 -0.9039
vn -0.8341 0.4336 -0.3409
vn -0.8341 0.4336 0.3409
vn -0.3810 0.1944 0.9039
vn 0.2049 0.3547 -0.9123
vn 0.4330 0.8263 -0.3601
vn 0.4330 0.8263 0.3601
vn 0.2049 0.3547 0.9123
vn -0.2428 -0.3424 0.9076
vn -0.6299 -0.7018 0.3327
vn -0.0000 0.9240 0.3824
vn -0.6299 -0.7018 -0.3327
vn -0.2428 -0.3424 -0.9076
vn -0.3862 -0.1847 -0.9037
vn -0.8771 -0.3409 -0.3384
vn -0.8771 -0.3409 0.3384
vn -0.3862 -0.1847 0.9037
vn 0.3810 0.1944 0.9039
vn 0.8341 0.4336 0.3409
vn 0.8341 0.4336 -0.3409
vn 0.3810 0.1944 -0.9039
vn -0.0000 0.3829 -0.9238
vn -0.0000 -0.3829 -0.9238
vn -0.0000 -0.9240 -0.3824
vn -0.0000 -0.9240 0.3824
vn -0.0000 -0.3829 0.9238
vn -0.0000 0.3829 0.9238
vt 0.771877 0.212159
vt 0.773002 0.264604
vt 0.760886 0.265849
vt 0.759594 0.195052
vt 0.729462 0.266365
vt 0.728100 0.187966
vt 0.697138 0.265849
vt 0.695846 0.195052
vt 0.682849 0.264604
vt 0.681724 0.212159
vt 0.760873 0.739510
vt 0.761694 0.687064
vt 0.774074 0.688296
vt 0.773363 0.722390
vt 0.805656 0.688777
vt 0.804991 0.715270
vt 0.093350 0.859135
vt 0.061026 0.859651
vt 0.061026 0.108359
vt 0.093349 0.108874
vt 0.837940 0.688226
vt 0.837229 0.722320
vt 0.852013 0.686966
vt 0.851192 0.739412
vt 0.960699 0.618336
vt 0.960699 0.652984
vt 0.936249 0.677435
vt 0.901670 0.677365
vt 0.877220 0.652815
vt 0.877220 0.618166
vt 0.901670 0.593716
vt 0.936249 0.593786
vt 0.936393 0.476002
vt 0.936393 0.389952
vt 0.960904 0.389952
vt 0.960904 0.476002
vt 0.901730 0.476002
vt 0.901730 0.389952
vt 0.877220 0.476002
vt 0.877220 0.389952
vt 0.936493 0.370410
vt 0.936493 0.284361
vt 0.960903 0.284233
vt 0.960903 0.370282
vt 0.901830 0.370411
vt 0.901830 0.284362
vt 0.841033 0.285653
vt 0.841033 0.199604
vt 0.865643 0.199731
vt 0.865643 0.285780
vt 0.910936 0.591080
vt 0.910936 0.505030
vt 0.945599 0.505030
vt 0.945599 0.591080
vt 0.886426 0.591080
vt 0.886426 0.505030
vt 0.932896 0.382534
vt 0.951698 0.373046
vt 0.804731 0.718229
vt 0.836678 0.731459
vt 0.772812 0.731529
vt 0.958680 0.267408
vt 0.969332 0.276797
vt 0.937777 0.257891
vt 0.725163 0.142813
vt 0.693289 0.156078
vt 0.757037 0.156078
vt 0.877220 0.488125
vt 0.896021 0.478637
vt 0.666959 0.808758
vt 0.668084 0.756313
vt 0.682373 0.755068
vt 0.681081 0.825864
vt 0.714697 0.754552
vt 0.713336 0.832950
vt 0.746121 0.755068
vt 0.744829 0.825864
vt 0.758237 0.756313
vt 0.757112 0.808758
vt 0.865021 0.142813
vt 0.865957 0.195257
vt 0.851880 0.194027
vt 0.851096 0.159934
vt 0.819596 0.193547
vt 0.818873 0.167055
vt 0.124773 0.859651
vt 0.124773 0.108359
vt 0.788015 0.194097
vt 0.787230 0.160004
vt 0.792318 0.763110
vt 0.760873 0.753293
vt 0.764850 0.742145
vt 0.813221 0.753652
vt 0.960699 0.739169
vt 0.936249 0.763719
vt 0.901670 0.763789
vt 0.877220 0.739339
vt 0.877220 0.704690
vt 0.901670 0.680140
vt 0.936249 0.680070
vt 0.960699 0.704521
vt 0.800746 0.856559
vt 0.800746 0.770510
vt 0.835409 0.770509
vt 0.835409 0.856558
vt 0.776136 0.856432
vt 0.776136 0.770383
vt 0.901730 0.869380
vt 0.901730 0.783330
vt 0.936393 0.783330
vt 0.936393 0.869380
vt 0.877220 0.869380
vt 0.877220 0.783330
vt 0.936393 0.255256
vt 0.936393 0.169206
vt 0.960904 0.169206
vt 0.960904 0.255256
vt 0.901730 0.255256
vt 0.901730 0.169206
vt 0.877220 0.255256
vt 0.877220 0.169206
vt 0.859820 0.770381
vt 0.859820 0.856430
vt 0.818606 0.164096
vt 0.786659 0.150866
vt 0.850525 0.150797
vt 0.886426 0.766425
vt 0.905228 0.775912
vt 0.951308 0.142813
vt 0.970110 0.152300
vt 0.713780 0.745507
vt 0.716717 0.700354
vt 0.748210 0.693268
vt 0.745654 0.732242
vt 0.678524 0.864839
vt 0.710398 0.878104
vt 0.823873 0.744067
vt 0.046737 0.860896
vt 0.046737 0.107114
vt 0.139525 0.037865
vt 0.151903 0.036607
vt 0.152726 0.792879
vt 0.140346 0.791647
vt 0.183483 0.036056
vt 0.184308 0.793360
vt 0.215768 0.036537
vt 0.216592 0.792809
vt 0.229845 0.037767
vt 0.230666 0.791549
vt 0.136890 0.860896
vt 0.136890 0.107114
s 0
usemtl Material.002
f 25/1/1 2/2/1 4/3/1 26/4/1
f 26/4/2 4/3/2 6/5/2 27/6/2
f 27/6/3 6/5/3 8/7/3 28/8/3
f 28/8/4 8/7/4 10/9/4 29/10/4
f 29/11/5 10/12/5 12/13/5 30/14/5
f 30/14/6 12/13/6 14/15/6 31/16/6
f 38/17/7 36/18/7 8/19/7 6/20/7
f 31/16/8 14/15/8 16/21/8 32/22/8
f 32/22/9 16/21/9 2/23/9 25/24/9
f 1/25/10 3/26/10 5/27/10 7/28/10 9/29/10 11/30/10 13/31/10 15/32/10
f 15/33/11 24/34/11 17/35/11 1/36/11
f 13/37/12 23/38/12 24/34/12 15/33/12
f 11/39/13 22/40/13 23/38/13 13/37/13
f 9/41/14 21/42/14 22/43/14 11/44/14
f 7/45/15 20/46/15 21/42/15 9/41/15
f 5/47/16 19/48/16 20/49/16 7/50/16
f 3/51/17 18/52/17 19/53/17 5/54/17
f 1/55/18 17/56/18 18/52/18 3/51/18
f 24/34/19 32/57/19 25/58/19 17/35/19
f 23/59/20 31/16/20 32/22/20 24/60/20
f 22/61/21 30/14/21 31/16/21 23/59/21
f 21/42/22 29/62/22 30/63/22 22/43/22
f 20/46/23 28/64/23 29/62/23 21/42/23
f 19/65/24 27/6/24 28/8/24 20/66/24
f 18/67/25 26/4/25 27/6/25 19/65/25
f 17/56/26 25/68/26 26/69/26 18/52/26
f 57/70/27 34/71/27 36/72/27 58/73/27
f 58/73/28 36/72/28 38/74/28 59/75/28
f 59/75/29 38/74/29 40/76/29 60/77/29
f 60/77/30 40/76/30 42/78/30 61/79/30
f 61/80/31 42/81/31 44/82/31 62/83/31
f 62/83/32 44/82/32 46/84/32 63/85/32
f 40/86/33 38/17/33 6/20/33 4/87/33
f 63/85/34 46/84/34 48/88/34 64/89/34
f 64/90/35 48/91/35 34/92/35 57/93/35
f 33/94/10 35/95/10 37/96/10 39/97/10 41/98/10 43/99/10 45/100/10 47/101/10
f 47/102/15 56/103/15 49/104/15 33/105/15
f 45/106/16 55/107/16 56/103/16 47/102/16
f 43/108/17 54/109/17 55/110/17 45/111/17
f 41/112/18 53/113/18 54/109/18 43/108/18
f 39/114/11 52/115/11 53/116/11 41/117/11
f 37/118/12 51/119/12 52/115/12 39/114/12
f 35/120/13 50/121/13 51/119/13 37/118/13
f 33/105/14 49/104/14 50/122/14 35/123/14
f 56/103/36 64/90/36 57/93/36 49/104/36
f 55/124/37 63/85/37 64/89/37 56/125/37
f 54/126/38 62/83/38 63/85/38 55/124/38
f 53/113/39 61/127/39 62/128/39 54/109/39
f 52/115/40 60/129/40 61/130/40 53/116/40
f 51/131/41 59/132/41 60/133/41 52/134/41
f 50/135/42 58/73/42 59/75/42 51/136/42
f 49/104/43 57/93/43 58/137/43 50/122/43
f 36/18/44 34/138/44 10/139/44 8/19/44
f 34/140/45 48/141/45 12/142/45 10/143/45
f 48/141/46 46/144/46 14/145/46 12/142/46
f 46/144/47 44/146/47 16/147/47 14/145/47
f 44/146/48 42/148/48 2/149/48 16/147/48
f 42/150/49 40/86/49 4/87/49 2/151/49
